<?xml version="1.0" encoding="UTF-8" standalone="no"?>
<!DOCTYPE svg PUBLIC "-//W3C//DTD SVG 1.1//EN" "http://www.w3.org/Graphics/SVG/1.1/DTD/svg11.dtd">
<svg width="100%" height="100%" viewBox="0 0 24 24" version="1.1" xmlns="http://www.w3.org/2000/svg" xmlns:xlink="http://www.w3.org/1999/xlink" xml:space="preserve" xmlns:serif="http://www.serif.com/" style="fill-rule:evenodd;clip-rule:evenodd;stroke-linejoin:round;stroke-miterlimit:2;">
    <g transform="matrix(-0.00379793,-0.999993,0.999993,-0.00379793,0.0456617,24.0455)">
        <path d="M12,24C5.417,24 0,18.583 0,12C-0,5.417 5.417,0 12,0C18.583,-0 24,5.417 24,12C24,18.583 18.583,24 12,24ZM12,1.5C6.24,1.5 1.5,6.24 1.5,12C1.5,17.76 6.24,22.5 12,22.5C17.76,22.5 22.5,17.76 22.5,12C22.495,6.242 17.758,1.505 12,1.5Z" style="fill-rule:nonzero;"/>
    </g>
    <g transform="matrix(-0.00379793,-0.999993,0.999993,-0.00379793,0.0456617,24.0455)">
        <path d="M12,19C11.589,19 11.25,18.661 11.25,18.25L11.25,5.75C11.25,5.339 11.589,5 12,5C12.411,5 12.75,5.339 12.75,5.75L12.75,18.25C12.75,18.661 12.411,19 12,19Z" style="fill-rule:nonzero;"/>
    </g>
    <g transform="matrix(-0.00379793,-0.999993,0.999993,-0.00379793,0.0456617,24.0455)">
        <path d="M12,19C11.801,19 11.61,18.921 11.47,18.78L7.47,14.78C7.341,14.641 7.269,14.458 7.269,14.269C7.269,13.857 7.607,13.519 8.019,13.519C8.208,13.519 8.391,13.591 8.53,13.72L12,17.19L15.47,13.72C15.612,13.568 15.811,13.481 16.019,13.481C16.43,13.481 16.769,13.82 16.769,14.231C16.769,14.439 16.682,14.638 16.53,14.78L12.53,18.78C12.39,18.921 12.199,19 12,19Z" style="fill-rule:nonzero;"/>
    </g>
</svg>
