<?xml version="1.0" encoding="UTF-8" standalone="no"?>
<!DOCTYPE svg PUBLIC "-//W3C//DTD SVG 1.1//EN" "http://www.w3.org/Graphics/SVG/1.1/DTD/svg11.dtd">
<svg width="100%" height="100%" viewBox="0 0 600 600" version="1.1" xmlns="http://www.w3.org/2000/svg" xmlns:xlink="http://www.w3.org/1999/xlink" xml:space="preserve" xmlns:serif="http://www.serif.com/" style="fill-rule:evenodd;clip-rule:evenodd;stroke-linejoin:round;stroke-miterlimit:2;">
    <g transform="matrix(0.1,0,0,-0.1,0,525)">
        <g transform="matrix(1.06277,2.68105e-18,2.68105e-18,1.08466,-180.659,-916.862)">
            <path d="M3120,5683C3090,5682 2971,5676 2855,5670C2206,5637 1922,5574 1655,5403C1574,5351 1424,5203 1356,5107C1302,5032 1242,4905 1208,4799C1189,4737 1185,4704 1185,4595C1186,4387 1224,4282 1387,4042C1434,3972 1485,3894 1499,3869C1602,3689 1643,3629 1658,3635C1687,3646 1970,3810 2085,3883C2234,3977 2337,4059 2451,4177C2586,4314 2727,4512 2717,4551C2714,4562 2717,4567 2725,4564C2738,4559 2778,4646 2880,4900C2976,5139 3154,5510 3237,5642C3250,5663 3260,5682 3260,5685C3260,5690 3237,5690 3120,5683Z" style="fill-rule:nonzero;"/>
        </g>
        <g transform="matrix(1.06277,2.68105e-18,2.68105e-18,1.08466,-180.659,-916.862)">
            <path d="M3845,5419C3637,5392 3481,5314 3344,5167C3277,5096 3216,4996 3141,4836C3114,4779 3055,4665 3010,4585C2940,4461 2929,4436 2941,4425C2964,4403 3284,4223 3430,4150C3578,4075 3723,4023 3871,3991C3982,3967 4253,3943 4257,3956C4259,3961 4279,3964 4303,3962C4326,3960 4463,3974 4606,3994C4910,4035 5073,4050 5332,4059L5519,4065L5352,4325C4950,4948 4756,5166 4480,5305C4373,5358 4286,5386 4142,5411C4021,5431 3958,5433 3845,5419Z" style="fill-rule:nonzero;"/>
        </g>
        <g transform="matrix(1.06277,2.68105e-18,2.68105e-18,1.08466,-180.659,-916.862)">
            <path d="M542,4188C294,3691 225,3516 186,3291C134,2983 209,2658 387,2424C506,2268 613,2189 791,2128C880,2098 893,2096 1030,2096C1110,2096 1293,2100 1437,2105L1698,2113L1705,2224C1713,2367 1695,2791 1676,2898C1641,3094 1586,3256 1501,3415C1468,3478 1449,3505 1436,3504C1424,3502 1422,3505 1430,3515C1442,3529 1413,3571 1218,3822C1072,4009 839,4349 769,4475C747,4516 727,4550 726,4550C724,4550 642,4387 542,4188Z" style="fill-rule:nonzero;"/>
        </g>
        <g transform="matrix(1.06277,2.68105e-18,2.68105e-18,1.08466,-180.659,-916.862)">
            <path d="M2840,4322C2691,4136 2604,4054 2425,3935C2243,3814 2014,3702 1780,3620C1728,3602 1681,3583 1676,3579C1671,3575 1681,3539 1698,3498C1743,3388 1787,3245 1807,3139C1821,3065 1825,2992 1825,2795C1825,2544 1821,2492 1779,2241C1756,2105 1757,2101 1815,2100C1866,2099 2082,2053 2166,2025C2272,1990 2503,1875 2617,1801C2728,1729 2864,1628 2985,1527L3074,1452L3124,1519C3252,1688 3447,1859 3646,1976C3807,2070 4048,2179 4233,2240C4288,2258 4300,2265 4295,2279C4219,2462 4169,2629 4149,2770C4133,2878 4133,3214 4149,3345C4156,3400 4172,3509 4185,3588C4199,3667 4210,3733 4210,3735C4210,3738 4193,3740 4173,3740C4117,3741 3898,3786 3806,3816C3578,3891 3313,4047 3046,4264C2992,4309 2935,4355 2920,4367L2893,4389L2840,4322Z" style="fill-rule:nonzero;"/>
        </g>
        <g transform="matrix(1.06277,2.68105e-18,2.68105e-18,1.08466,-180.659,-916.862)">
            <path d="M4695,3740C4657,3736 4542,3732 4441,3731L4257,3730L4263,3403C4269,3043 4282,2925 4341,2728C4394,2551 4503,2326 4532,2334C4539,2335 4542,2335 4538,2333C4533,2330 4530,2324 4530,2319C4530,2307 4624,2180 4778,1981C4896,1830 5098,1536 5186,1388C5224,1323 5240,1303 5248,1313C5253,1319 5327,1462 5412,1630C5697,2192 5778,2418 5796,2696C5812,2937 5730,3215 5585,3409C5446,3595 5322,3679 5104,3734C5038,3751 4831,3754 4695,3740Z" style="fill-rule:nonzero;"/>
        </g>
        <g transform="matrix(1.06277,2.68105e-18,2.68105e-18,1.08466,-180.659,-916.862)">
            <path d="M4130,2109C3666,1842 3470,1672 3286,1377C3246,1313 3240,1297 3250,1285C3261,1272 3260,1271 3246,1276C3227,1283 3213,1255 3081,932C2994,720 2799,312 2732,205C2715,178 2702,155 2703,154C2707,152 3075,169 3245,180C3916,222 4228,325 4482,588C4621,732 4686,837 4747,1015C4783,1122 4793,1214 4780,1327C4758,1509 4725,1585 4562,1825C4510,1902 4465,1972 4461,1980C4443,2024 4325,2210 4316,2210C4310,2209 4226,2164 4130,2109Z" style="fill-rule:nonzero;"/>
        </g>
        <g transform="matrix(1.06277,2.68105e-18,2.68105e-18,1.08466,-180.659,-916.862)">
            <path d="M1635,1883C1613,1881 1478,1864 1335,1845C1094,1813 747,1783 537,1777L449,1775L557,1605C1008,900 1206,675 1504,530C1678,445 1918,400 2089,420C2327,449 2465,515 2616,671C2690,749 2744,836 2842,1040C2872,1103 2929,1211 2968,1279C3007,1348 3037,1407 3034,1411C3028,1421 2800,1554 2635,1644C2356,1796 2117,1868 1831,1886C1727,1892 1716,1891 1703,1875C1691,1858 1690,1858 1690,1873C1690,1882 1687,1889 1683,1888C1678,1887 1657,1885 1635,1883Z" style="fill-rule:nonzero;"/>
        </g>
    </g>
</svg>
