<?xml version="1.0" encoding="UTF-8" standalone="no"?>
<!DOCTYPE svg PUBLIC "-//W3C//DTD SVG 1.1//EN" "http://www.w3.org/Graphics/SVG/1.1/DTD/svg11.dtd">
<svg width="100%" height="100%" viewBox="0 0 91 91" version="1.1" xmlns="http://www.w3.org/2000/svg" xmlns:xlink="http://www.w3.org/1999/xlink" xml:space="preserve" xmlns:serif="http://www.serif.com/" style="fill-rule:evenodd;clip-rule:evenodd;stroke-linejoin:round;stroke-miterlimit:2;">
    <g transform="matrix(1,0,0,1,-4.5,-2.77)">
        <path d="M65.663,31.429L34.337,31.429C32.223,31.429 30.492,32.945 30.492,34.798C30.492,36.65 32.222,38.166 34.337,38.166L65.663,38.166C67.777,38.166 69.508,36.649 69.508,34.798C69.508,32.944 67.777,31.429 65.663,31.429Z" style="fill-rule:nonzero;"/>
    </g>
    <g transform="matrix(1,0,0,1,-4.5,-2.77)">
        <path d="M65.663,58.375L34.337,58.375C32.223,58.375 30.492,59.891 30.492,61.744C30.492,63.596 32.222,65.113 34.337,65.113L65.663,65.113C67.777,65.113 69.508,63.596 69.508,61.744C69.508,59.891 67.777,58.375 65.663,58.375Z" style="fill-rule:nonzero;"/>
    </g>
    <g transform="matrix(1,0,0,1,-4.5,-2.77)">
        <path d="M65.663,44.902L34.337,44.902C32.223,44.902 30.492,46.418 30.492,48.27C30.492,50.122 32.222,51.638 34.337,51.638L65.663,51.638C67.777,51.638 69.508,50.122 69.508,48.27C69.508,46.418 67.777,44.902 65.663,44.902Z" style="fill-rule:nonzero;"/>
    </g>
    <g transform="matrix(1,0,0,1,-4.5,-2.77)">
        <path d="M50,3.27C25.187,3.27 5,23.458 5,48.27C5,73.082 25.187,93.27 50,93.27C74.813,93.27 95,73.082 95,48.27C95,23.458 74.813,3.27 50,3.27ZM50,87.989C28.099,87.989 10.28,70.171 10.28,48.27C10.28,26.369 28.099,8.551 50,8.551C71.901,8.551 89.72,26.369 89.72,48.27C89.72,70.171 71.901,87.989 50,87.989Z" style="fill-rule:nonzero;"/>
    </g>
</svg>
