<?xml version="1.0" encoding="UTF-8" standalone="no"?>
<!DOCTYPE svg PUBLIC "-//W3C//DTD SVG 1.1//EN" "http://www.w3.org/Graphics/SVG/1.1/DTD/svg11.dtd">
<svg width="100%" height="100%" viewBox="0 0 24 25" version="1.1" xmlns="http://www.w3.org/2000/svg" xmlns:xlink="http://www.w3.org/1999/xlink" xml:space="preserve" xmlns:serif="http://www.serif.com/" style="fill-rule:evenodd;clip-rule:evenodd;stroke-linejoin:round;stroke-miterlimit:2;">
    <g transform="matrix(1.25388,0,0,1.25388,-3.04652,-2.54652)">
        <g>
            <rect x="0" y="0" width="24" height="24" style="fill:none;"/>
            <path d="M14.095,15.635C14.403,15.328 14.403,15.328 14.773,14.96C15.116,14.618 15.386,14.35 15.558,14.18C16.416,13.33 17.561,13.329 18.421,14.181C19.219,14.972 20.028,15.781 20.851,16.61C21.721,17.486 21.715,18.632 20.842,19.513C20.67,19.687 20.387,19.895 20.002,20.142C19.916,20.197 19.826,20.254 19.732,20.312C19.479,20.468 19.208,20.627 18.938,20.781C18.776,20.873 18.65,20.943 18.588,20.976C17.599,21.546 15.994,21.67 14.965,21.272C14.861,21.241 14.677,21.178 14.422,21.081C14.003,20.922 13.537,20.723 13.036,20.483C11.608,19.797 10.18,18.91 8.846,17.8C8.31,17.354 7.799,16.88 7.317,16.376C6.928,15.969 6.559,15.546 6.208,15.107C5.053,13.662 4.145,12.115 3.457,10.568C3.216,10.026 3.02,9.521 2.864,9.068C2.769,8.792 2.709,8.592 2.692,8.522C2.304,7.455 2.524,5.849 3.17,4.904C3.21,4.841 3.281,4.734 3.374,4.597C3.529,4.368 3.691,4.14 3.851,3.925C3.92,3.832 3.988,3.743 4.054,3.66C4.222,3.445 4.376,3.268 4.513,3.133C5.372,2.288 6.516,2.289 7.376,3.134C7.727,3.479 9.242,4.995 9.79,5.548C10.677,6.443 10.679,7.575 9.793,8.465C9.661,8.599 9.372,8.888 8.974,9.287C8.635,9.625 8.635,9.625 8.354,9.906C8.209,10.051 8.158,10.103 8.125,10.136C8.181,10.28 8.274,10.501 8.402,10.776C8.649,11.31 8.931,11.843 9.244,12.338C9.585,12.877 9.94,13.337 10.304,13.691C10.639,14.017 11.039,14.334 11.49,14.637C12.016,14.99 12.583,15.306 13.15,15.58C13.443,15.721 13.679,15.824 13.84,15.889C13.876,15.853 13.931,15.798 14.095,15.635ZM8.1,10.074C8.101,10.076 8.102,10.078 8.103,10.08C8.102,10.078 8.101,10.076 8.1,10.074ZM20.141,17.314C19.32,16.487 18.513,15.68 17.717,14.891C17.247,14.426 16.73,14.426 16.262,14.89C16.091,15.06 15.821,15.328 15.481,15.667C15.109,16.037 15.109,16.037 14.801,16.343C14.555,16.589 14.555,16.589 14.493,16.65C14.248,16.894 13.839,16.972 13.534,16.844C13.366,16.779 13.08,16.656 12.715,16.48C12.109,16.188 11.502,15.849 10.932,15.467C10.434,15.132 9.988,14.779 9.605,14.407C9.18,13.992 8.778,13.473 8.399,12.872C8.061,12.337 7.758,11.766 7.494,11.196C7.336,10.854 7.225,10.585 7.169,10.437C7.042,10.121 7.128,9.719 7.366,9.481C7.422,9.424 7.422,9.424 7.647,9.199C7.928,8.918 7.928,8.918 8.265,8.581C8.664,8.182 8.952,7.893 9.085,7.76C9.582,7.26 9.581,6.757 9.08,6.252C8.535,5.702 7.022,4.188 6.676,3.848C6.204,3.385 5.684,3.384 5.215,3.846C5.112,3.947 4.984,4.095 4.839,4.279C4.779,4.355 4.717,4.436 4.653,4.522C4.502,4.724 4.349,4.941 4.202,5.159C4.113,5.289 4.046,5.39 4.003,5.457C3.529,6.15 3.356,7.42 3.645,8.222C3.669,8.312 3.723,8.49 3.81,8.743C3.956,9.17 4.142,9.647 4.371,10.162C5.026,11.635 5.891,13.109 6.989,14.482C7.322,14.898 7.672,15.3 8.04,15.685C8.495,16.161 8.978,16.609 9.485,17.031C10.752,18.085 12.111,18.929 13.469,19.581C13.944,19.809 14.384,19.997 14.777,20.146C15.01,20.235 15.174,20.29 15.29,20.327C16.072,20.628 17.362,20.529 18.099,20.104C18.167,20.067 18.288,20 18.444,19.911C18.705,19.763 18.965,19.61 19.207,19.461C19.296,19.406 19.38,19.353 19.461,19.301C19.787,19.091 20.025,18.917 20.132,18.809C20.62,18.317 20.622,17.799 20.141,17.314Z" style="fill-rule:nonzero;"/>
        </g>
    </g>
</svg>
