<?xml version="1.0" encoding="UTF-8" standalone="no"?>
<!DOCTYPE svg PUBLIC "-//W3C//DTD SVG 1.1//EN" "http://www.w3.org/Graphics/SVG/1.1/DTD/svg11.dtd">
<svg width="100%" height="100%" viewBox="0 0 100 67" version="1.1" xmlns="http://www.w3.org/2000/svg" xmlns:xlink="http://www.w3.org/1999/xlink" xml:space="preserve" xmlns:serif="http://www.serif.com/" style="fill-rule:evenodd;clip-rule:evenodd;stroke-linejoin:round;stroke-miterlimit:2;">
    <g transform="matrix(1.02041,0,0,1.02041,967.347,-987.796)">
        <g>
            <path d="M-851.3,973.6C-852,972.3 -853,971.2 -854.2,970.3C-856,969 -858.1,968.2 -860.5,968.2L-937.5,968.2C-939.9,968.2 -942,969 -943.8,970.3C-945,971.2 -946,972.3 -946.7,973.6C-947.6,975.1 -948,976.8 -948,978.7L-948,1023.2C-948,1025.2 -947.4,1027 -946.5,1028.6C-945.7,1029.9 -944.7,1030.9 -943.5,1031.8C-941.8,1033 -939.7,1033.7 -937.5,1033.7L-860.5,1033.7C-858.3,1033.7 -856.2,1033 -854.5,1031.8C-853.3,1031 -852.3,1029.9 -851.5,1028.6C-850.5,1027 -850,1025.2 -850,1023.2L-850,978.7C-850,976.9 -850.5,975.2 -851.3,973.6ZM-937.5,972.6L-860.5,972.6C-859.5,972.6 -858.6,972.8 -857.8,973.2L-896.4,1003.2C-897.1,1003.8 -898,1004.1 -898.9,1004.1C-899.8,1004.1 -900.7,1003.8 -901.4,1003.2L-940,973.2C-939.4,972.8 -938.5,972.6 -937.5,972.6ZM-943.7,1023.3L-943.7,978.8C-943.7,978 -943.5,977.1 -943.2,976.4L-914.1,999L-943.2,1025.7C-943.5,1024.9 -943.7,1024.1 -943.7,1023.3ZM-860.5,1029.4L-937.5,1029.4C-938.5,1029.4 -939.4,1029.2 -940.2,1028.8L-910.7,1001.6L-904.3,1006.6C-902.8,1007.7 -901,1008.4 -899.1,1008.4C-897.2,1008.4 -895.4,1007.8 -893.9,1006.6L-887.5,1001.6L-858,1028.8C-858.6,1029.2 -859.5,1029.4 -860.5,1029.4ZM-883.9,998.9L-854.8,976.3C-854.5,977 -854.3,977.8 -854.3,978.7L-854.3,1023.2C-854.3,1024 -854.5,1024.9 -854.8,1025.6L-883.9,998.9Z" style="fill-rule:nonzero;"/>
        </g>
    </g>
</svg>
