<?xml version="1.0" encoding="UTF-8" standalone="no"?>
<!DOCTYPE svg PUBLIC "-//W3C//DTD SVG 1.1//EN" "http://www.w3.org/Graphics/SVG/1.1/DTD/svg11.dtd">
<svg width="100%" height="100%" viewBox="0 0 100 93" version="1.1" xmlns="http://www.w3.org/2000/svg" xmlns:xlink="http://www.w3.org/1999/xlink" xml:space="preserve" xmlns:serif="http://www.serif.com/" style="fill-rule:evenodd;clip-rule:evenodd;stroke-linejoin:round;stroke-miterlimit:2;">
    <g id="g208" transform="matrix(1,0,0,1,0,-16)">
        <g id="path126" transform="matrix(1.24302,0,0,1.23608,-11.5695,2.60159)">
            <path d="M42.5,81.344C43.094,82.094 45.344,82.156 45.344,82.156C45.344,82.156 46.938,84.687 48.875,85.406C50.812,86.125 53.836,86.277 54.875,85.812C55.914,85.347 59.281,83.5 60.25,83.406C62.438,82.875 64.781,81.125 64.781,81.125C64.781,81.125 67.593,79.406 67.562,78.094C67.531,76.782 67.124,75.375 66.562,75.438C66,75.501 64.624,75.282 64.531,74.532C64.438,73.782 64.406,73.063 63.781,72.563C63.156,72.063 61.406,71.688 60.969,72.094C60.532,72.5 57.438,72.594 57.438,72.594C57.438,72.594 54.688,70.438 53.813,69.906C52.938,69.374 50.313,69.906 50.313,69.906C50.313,69.906 44.907,69.406 44.375,69.906C43.843,70.406 43.031,72.812 43.031,72.812C43.031,72.812 42.906,71.687 41.843,71.593C40.78,71.499 39.5,72.719 39.5,72.719C39.5,72.719 35.688,72.375 35.812,73.907C35.936,75.439 41.906,80.594 42.5,81.344Z" style="fill:rgb(202,202,202);fill-rule:nonzero;"/>
        </g>
        <g id="path128" transform="matrix(1.24302,0,0,1.23608,-11.5695,2.60159)">
            <path d="M67.906,77.656C67.906,77.656 67.562,74.718 67,75C66.438,75.282 64.969,74.594 64.969,74.594C64.969,74.594 65.125,72.938 64,72.125C62.875,71.312 61.094,71.469 61.094,71.469C61.094,71.469 63.094,67.688 63.563,67.25C64.032,66.812 65.938,66.875 65.938,66.875C65.938,66.875 65.563,65.656 67.563,65.094C69.563,64.532 74.844,68.906 74.844,68.906C74.844,68.906 75.282,66.344 76.375,65.906C77.468,65.468 78.406,67.125 77.563,69.25C76.72,71.375 67.906,77.656 67.906,77.656Z" style="fill:rgb(202,202,202);fill-rule:nonzero;"/>
        </g>
        <g id="path130" transform="matrix(1.24302,0,0,1.23608,-11.5695,2.60159)">
            <path d="M74.625,68.094C74.625,68.094 75.531,65.125 76.656,65.406C77.531,64.344 76.156,61.406 75.5,61.594C74.844,61.782 73.531,65.344 74,65.782C74.469,66.22 74.625,68.094 74.625,68.094Z" style="fill:rgb(202,202,202);fill-rule:nonzero;"/>
        </g>
        <g id="path132" transform="matrix(1.24302,0,0,1.23608,-11.5695,2.60159)">
            <path d="M78.125,66.75L77.094,65.469C77.094,65.469 77.875,63.219 76.5,61.844C77.405,57.947 79.781,52.688 80.219,53.5C80.657,54.312 80.907,58.781 80.907,58.781C80.907,58.781 78.876,61.437 78.469,62.656C78.062,63.875 78.125,66.75 78.125,66.75Z" style="fill:rgb(202,202,202);fill-rule:nonzero;"/>
        </g>
        <g id="path134" transform="matrix(1.24302,0,0,1.23608,-11.5695,2.60159)">
            <path d="M74.207,73.457C74.207,73.457 78.505,70.494 78.373,67.165C78.832,63.582 78.539,63.874 78.873,62.832C79.207,61.79 80.706,60.041 81.415,58.957C82.124,57.873 82.582,55.748 82.582,55.748C82.582,55.748 83.746,51.457 83.914,49.706C84.082,47.956 83.123,43.998 83.123,43.998C83.123,43.998 88.665,45.041 89.331,48.206C89.997,51.371 85.872,60.921 85.914,61.584C85.956,62.247 83.078,64.79 82.581,65.831C82.084,66.872 81.788,67.581 81.289,68.539C80.79,69.497 74.207,73.457 74.207,73.457Z" style="fill:rgb(202,202,202);fill-rule:nonzero;"/>
        </g>
        <g id="path136" transform="matrix(1.24302,0,0,1.23608,-11.5695,2.60159)">
            <path d="M80.906,69.67L81.805,68.79C81.805,68.79 82.705,66.456 83.122,65.706C83.539,64.956 86.538,62.63 86.58,61.585C86.622,60.54 89.414,52.873 89.622,51.081C90.164,52.165 88.956,59.63 88.039,61.585C87.122,63.54 85.288,65.124 84.83,66.54C84.372,67.956 80.906,69.67 80.906,69.67Z" style="fill:rgb(202,202,202);fill-rule:nonzero;"/>
        </g>
        <g id="path138" transform="matrix(1.24302,0,0,1.23608,-11.5695,2.60159)">
            <path d="M72.188,27.312C73.376,26.25 79.063,34.374 79.876,35.374C80.689,36.374 82.501,43.997 82.501,43.997C82.501,43.997 83.251,47.374 83.313,49.061C83.375,50.748 81.438,57 81.438,57C81.438,57 81.114,53.336 80.563,52.438C80.012,51.54 79.657,50.688 78.704,50.25C77.751,49.812 76.5,42.625 76.5,42.625C76.5,42.625 76.027,40.063 75.42,39.25C74.813,38.437 75.125,35.562 75,34.938C74.875,34.314 73.375,35.313 73.25,33.5C73.125,31.687 71,28.375 72.188,27.312Z" style="fill:rgb(202,202,202);fill-rule:nonzero;"/>
        </g>
        <g id="path140" transform="matrix(1.24302,0,0,1.23608,-11.5695,2.60159)">
            <path d="M80,52.812C80.277,52.615 79.068,50.624 77.889,50.624C77.039,49.117 75.827,40.991 75.42,40.249C75.013,39.507 74.563,39.374 74.563,38.687L74.563,36.749C74.563,36.749 71.741,41.666 71.829,42.624C71.917,43.582 70.376,43.082 70.376,43.562C70.376,44.042 70.876,44.104 71.126,44.781C71.376,45.458 69.775,54.291 69.492,54.562C69.209,54.833 69.709,55.5 69.875,56C70.041,56.5 69.209,55.916 68.937,56.312C68.665,56.708 69.858,60.458 69.491,61.25C69.124,62.042 68.749,64.084 68.937,64.562C70.582,64.666 73.901,67.624 73.901,67.624C73.901,67.624 73.959,66.707 73.437,65.624C73.457,62.916 75.048,61.165 75.419,60.874C75.79,60.583 75.938,61 75.938,61C75.938,61 78.959,52.5 80,52.812Z" style="fill:rgb(202,202,202);fill-rule:nonzero;"/>
        </g>
        <g id="path142" transform="matrix(1.24302,0,0,1.23608,-11.5695,2.60159)">
            <path d="M79.582,23.291C79.582,23.291 80.29,20.999 78.707,20.333C79.166,19.25 78.707,18.416 78.707,18.416C78.707,18.416 76.291,12.166 73.416,11.666C70.541,11.166 69.957,11.666 69.957,11.666C69.957,11.666 70.166,11.291 69.291,10.916C68.416,10.541 66.999,11.666 66.999,11.666C66.999,11.666 68.357,11.999 68.887,12.458C69.417,12.917 69.582,14.75 69.582,14.75C69.582,14.75 76.125,18.916 75.666,19.833C76.916,19.582 79.582,23.291 79.582,23.291Z" style="fill:rgb(202,202,202);fill-rule:nonzero;"/>
        </g>
        <g id="path144" transform="matrix(1.24302,0,0,1.23608,-11.5695,2.60159)">
            <path d="M78.748,33.207C78.748,33.207 80.623,27.79 80.29,26.165C79.707,25.162 79.332,25.373 79.332,25.373C79.332,25.373 79.707,23.623 79.29,23.623C78.54,22.623 76.165,20.373 76.165,20.373C76.165,20.373 76.041,20.206 75.582,20.373C75.244,20.208 75.04,19.415 75.04,19.415C75.04,19.415 70.082,15.29 69.207,15.04C68.915,13.998 69.082,13.332 68.665,12.832C68.248,12.332 66.707,11.957 66.707,11.957C66.707,11.957 64.999,12.374 64.832,13.082C64.665,13.79 62.04,15.124 62.04,15.124C62.04,15.124 62.832,15.707 66.165,18.207C69.79,19.582 71.165,28.624 71.165,28.624L71.457,28.291C71.457,28.291 71.283,27.958 71.828,26.833C73.79,25.749 78.748,33.207 78.748,33.207Z" style="fill:rgb(202,202,202);fill-rule:nonzero;"/>
        </g>
        <g id="path146" transform="matrix(1.24302,0,0,1.23608,-11.5695,2.60159)">
            <path d="M65.416,66.457C64.457,66.207 63.916,66.501 63.291,66.75C62.666,66.999 60.996,70.932 60.374,71.79C59.749,72.082 57.666,72.04 57.666,72.04C57.666,72.04 54.707,69.789 53.582,69.248C52.457,68.707 51.166,69.248 50.29,69.248L45.29,69.248C45.29,69.248 44.915,67.335 45.623,66.75C46.331,66.165 46.623,66.874 46.373,65.249C46.123,63.624 48.958,60.081 49.999,59.665C51.04,59.249 55.081,59.665 55.081,59.665C55.081,59.665 55.956,57.665 59.331,58.082C62.706,58.499 63.123,59.54 63.123,59.54C63.123,59.54 65.915,59.209 66.54,60.083C67.165,60.957 69.315,60.956 68.886,61.29C68.457,61.624 68.331,64.415 68.331,64.415C68.331,64.415 65.208,64.624 65.416,66.457Z" style="fill:rgb(202,202,202);fill-rule:nonzero;"/>
        </g>
        <g id="path148" transform="matrix(1.24302,0,0,1.23608,-11.5695,2.60159)">
            <path d="M42.958,71.35C42.958,71.35 42.583,71.249 41.875,70.957C41.167,70.665 39.083,72.042 39.083,72.042C39.083,72.042 39.348,69.639 39.083,69.124C38.818,68.609 38.166,67.499 38.375,66.957C38.584,66.415 39.084,67.207 39.542,66.957C40,66.707 42.292,61.749 45.375,61.832C45.951,61.816 46.25,61.54 46.667,62.415C45.667,63.29 45.917,65.79 45.917,65.79C45.917,65.79 45.25,66.043 44.75,66.937C44.25,67.831 44.583,68.207 44.75,69.082C43.708,68.749 42.958,71.35 42.958,71.35Z" style="fill:rgb(202,202,202);fill-rule:nonzero;"/>
        </g>
        <g id="path150" transform="matrix(1.24302,0,0,1.23608,-11.5695,2.60159)">
            <path d="M61.416,58.025C61.416,58.025 63,58.248 63.333,59.04C64.041,58.707 65.625,58.79 66.333,59.04C67.041,59.29 66.374,59.415 67.041,59.915C67.708,60.415 68.887,60.375 68.887,60.375C68.887,60.375 68.082,55.998 68.374,55.665C68.666,55.332 69.208,55.665 69.208,55.665C69.208,55.665 68.857,55.123 68.887,54.54C68.917,53.957 69.491,53.416 69.491,53.416C69.491,53.416 67.833,51.835 67.208,52.187C66.583,52.539 66.666,53.998 66.666,53.998C66.666,53.998 64.957,53.581 64.624,53.998C64.291,54.415 65.167,56.168 64.208,56C63.249,55.832 61.416,58.025 61.416,58.025Z" style="fill:rgb(202,202,202);fill-rule:nonzero;"/>
        </g>
        <g id="path152" transform="matrix(1.24302,0,0,1.23608,-11.5695,2.60159)">
            <path d="M69.491,52.581C69.491,52.581 69.157,50.515 68.887,50C68.617,49.485 68.29,49.04 68.332,48.373C68.374,47.706 68.887,47.956 68.887,47.956C68.887,47.956 67.833,45.998 67.791,45.331C67.749,44.664 68.291,44.748 68.291,44.748C68.291,44.748 67.75,43.831 68.166,42.79C68.582,41.749 69.491,41.54 69.491,41.54C69.491,41.54 66.291,39.832 66.957,36.957C67.457,36.29 68.499,36.751 68.499,36.751C68.499,36.751 67.25,34.249 69.291,33.874C71.332,33.499 73.499,37.291 73.499,37.291C73.499,37.291 71.363,41.62 71.374,41.874C71.385,42.128 71.461,42.469 71.185,42.499C70.909,42.529 69.748,42.582 69.707,43.228C69.666,43.874 70.458,44.332 70.666,44.999C70.874,45.666 69.491,52.581 69.491,52.581Z" style="fill:rgb(202,202,202);fill-rule:nonzero;"/>
        </g>
        <g id="path154" transform="matrix(1.24302,0,0,1.23608,-11.5695,2.60159)">
            <path d="M73.792,36.958L74.464,36.041C74.464,36.041 74.787,35.537 74.464,35.416C74.141,35.295 73.122,34.958 73,34.583C72.854,32.792 71.185,29 71.185,29C71.185,29 72.068,33.647 71.829,34.25C72.396,34.792 73.792,36.958 73.792,36.958Z" style="fill:rgb(202,202,202);fill-rule:nonzero;"/>
        </g>
        <g id="path156" transform="matrix(1.24302,0,0,1.23608,-11.5695,2.60159)">
            <path d="M38.583,72.25C38.583,72.25 35.375,72.416 35.25,73.125C35.125,73.834 35.583,75.042 35.583,75.042C35.583,75.042 34.72,74.684 34.25,74.584C28.458,74.25 26.917,73.666 25,72.625C18.917,68.667 15.5,61.208 15.083,59.5C14.208,54.209 15.208,51.667 16.041,51.417C16.874,51.167 21.541,54.875 21.916,54.375C22.291,53.875 23.666,55.751 24.291,55.584C24.916,55.417 27.374,58.375 27.291,59.167C27.208,59.959 29.874,59.709 30.624,61.209C31.374,62.709 33.416,66.209 34.207,66.084C34.998,65.959 36.207,67.293 36.374,68.334C36.541,69.375 38.583,72.25 38.583,72.25Z" style="fill:rgb(202,202,202);fill-rule:nonzero;"/>
        </g>
        <g id="path158" transform="matrix(1.24302,0,0,1.23608,-11.5695,2.60159)">
            <path d="M38.583,71.35C38.583,71.35 38.901,70.191 38.583,69.458C38.265,68.725 37.75,68.145 37.75,67.541C37.75,66.937 38.188,66.822 37.75,66.333C37.312,65.844 37.447,64.26 36.583,63.958C35.719,63.656 35.291,61.404 34.583,61.249C33.875,61.094 32.916,60.376 32.916,60.376C32.916,60.376 31.333,57.832 30.666,57.791C29.999,57.75 29.145,56.957 28.541,57.041C27.937,57.125 25.812,54.541 25.499,54.083C25.186,53.625 25.687,53.26 25.499,52.583C25.311,51.906 22,48.75 22,48.75C22,48.75 20.303,46.663 19.792,46.667C19.281,46.671 19.428,46.677 18.917,46.667C18.406,46.657 17.24,43.343 16.542,43.875C15.844,44.407 14.906,50.833 16,50.844C17.094,50.855 21.542,53.833 21.542,53.833C21.542,53.833 21.906,53.52 22.25,53.541C22.594,53.562 24.042,54.916 24.042,54.916C24.042,54.916 23.834,54.916 24.542,54.958C25.25,55 27.634,58.156 27.625,58.375C27.616,58.594 27.573,58.77 27.708,59.041C27.843,59.312 30.144,59.7 30.458,60.166C30.772,60.632 33.629,65.448 34.083,65.541C34.537,65.634 34.772,65.625 35.542,66C36.312,66.375 36.667,67.666 36.834,68.458C37.001,69.25 38.583,71.35 38.583,71.35Z" style="fill:rgb(202,202,202);fill-rule:nonzero;"/>
        </g>
        <g id="path160" transform="matrix(1.24302,0,0,1.23608,-11.5695,2.60159)">
            <path d="M38.333,66.208C38.5,66.458 38.811,66.625 39.166,66.458C39.521,66.291 42.186,62.349 43.374,61.778C44.562,61.207 45.248,61.603 45.541,61.416C45.834,61.229 46.666,61.416 46.666,61.416C46.666,61.416 45.936,60.239 46.041,58.025C46.146,55.811 49.208,53.708 49.208,53.708C49.208,53.708 48.458,53.329 47.916,52.581C47.374,51.833 47.395,50.748 47.124,50.207C46.853,49.666 45.59,49.436 45.191,48.707C44.792,47.978 41.698,43.86 40.875,44C40.052,44.14 38.895,44.688 37.917,44.5C36.939,44.312 35.25,43.116 34.417,43.214C33.584,43.312 32.979,44.624 32.417,44.791C31.855,44.958 29.813,43.978 28.417,44.208C27.021,44.438 23.209,48.833 23.209,48.833C23.209,48.833 25.896,51.543 25.959,52.188C26.022,52.833 25.834,53.063 25.876,53.709C25.918,54.355 28.229,56.451 28.459,56.257C28.689,56.063 30.376,57.209 30.376,57.209C30.376,57.209 30.438,57.209 30.751,57.167C31.064,57.125 32.897,59.563 33.251,60.042C33.605,60.521 34.522,60.793 34.918,60.771C35.314,60.749 36.439,63.396 36.439,63.396C36.439,63.396 36.501,63.584 37.085,63.604C37.669,63.624 38.167,65.958 38.333,66.208Z" style="fill:rgb(202,202,202);fill-rule:nonzero;"/>
        </g>
        <g id="path162" transform="matrix(1.24302,0,0,1.23608,-11.5695,2.60159)">
            <path d="M47.296,61.778C47.296,61.778 46.042,59.02 46.501,57.583C46.96,56.146 49.584,53.791 49.584,53.791C49.584,53.791 49.396,52.291 49.584,51.791C49.772,51.291 50.209,51.405 50.209,51.405C50.209,51.405 49.834,50.146 50.209,50C50.584,49.854 51.917,50 51.917,50C51.917,50 52.333,48.708 52.917,48.5C53.501,48.292 58.166,48.979 59,50C59.834,51.021 63.063,53.04 63.584,53.666C64.105,54.292 64.292,55.5 64.292,55.5C64.292,55.5 64.208,55.52 63.625,55.583C63.042,55.646 60.834,57.833 60.834,57.833C60.834,57.833 58.48,57.541 57.459,57.583C56.438,57.625 54.75,59.125 54.75,59.125C54.75,59.125 50.361,58.911 49.566,59.32C48.771,59.729 47.296,61.778 47.296,61.778Z" style="fill:rgb(202,202,202);fill-rule:nonzero;"/>
        </g>
        <g id="path164" transform="matrix(1.24302,0,0,1.23608,-11.5695,2.60159)">
            <path d="M22.625,48.906C22.625,48.906 21.844,47.844 21.469,47.531C21.094,47.218 21.719,43.187 22.25,42.187C22.781,41.187 23.983,40.767 24.531,40.187C25.079,39.607 28.906,35.406 30.969,35.093C33.032,34.78 34.625,35.093 34.625,35.093C34.625,35.093 32.187,36.093 32.281,36.937C32.375,37.781 31.406,37.156 30.906,37.343C30.406,37.53 31.875,38.249 32.031,39.499C32.187,40.749 30.75,43.816 30.75,43.816C30.75,43.816 30.438,43.749 28.531,43.655C26.624,43.561 22.625,48.906 22.625,48.906Z" style="fill:rgb(202,202,202);fill-rule:nonzero;"/>
        </g>
        <g id="path166" transform="matrix(1.24302,0,0,1.23608,-11.5695,2.60159)">
            <path d="M67.875,48.781C67.875,48.781 67.733,47.585 68.25,47.656C66.75,44.859 67.719,44.5 67.719,44.5C67.719,44.5 67.047,42.375 68.657,41.5C65.501,39.656 66.454,36.922 66.563,36.562C66.672,36.202 67.813,36.25 67.813,36.25C67.813,36.25 67.149,33.797 68.887,33.594C68.875,31.188 62.532,23.914 60.532,22.582C58.532,21.25 55.282,20.766 54.907,21.406C54.532,22.046 54.907,22.582 54.907,22.582C54.907,22.582 53.922,23.469 54,24.656C54.078,25.843 55.219,27.217 55.219,27.217C55.219,27.217 54.344,27.985 55.063,29.344C55.782,30.703 56.125,30.344 56.125,30.344C56.125,30.344 54.766,31 55.656,32.438C56.546,33.876 58.531,35.344 58.531,35.344C58.531,35.344 58.686,39.73 60.061,41.917C61.436,44.104 67.875,48.781 67.875,48.781Z" style="fill:rgb(202,202,202);fill-rule:nonzero;"/>
        </g>
        <g id="path168" transform="matrix(1.24302,0,0,1.23608,-11.5695,2.60159)">
            <path d="M17.251,43.625C16.375,42.563 15.834,44.208 15.834,44.208C15.834,44.208 14.968,42.843 15.688,37.771C16.408,32.699 18.614,32.049 19.207,31.748C17.424,33.759 17.566,37.54 17.252,39.083C16.938,40.626 17.219,41.531 17.251,43.625Z" style="fill:rgb(202,202,202);fill-rule:nonzero;"/>
        </g>
        <g id="path170" transform="matrix(1.24302,0,0,1.23608,-11.5695,2.60159)">
            <path d="M14.5,58.025C14.5,58.025 14.375,58.49 14.5,59.042C14.625,59.594 11.062,54.916 10.625,51.708C10.188,48.5 9.729,49.302 9.458,47.916C9.187,46.53 9.198,42.573 10.208,39.208C11.218,35.843 15.499,30.75 15.499,30.75C15.499,30.75 17.126,28.74 18,28.042C18.874,27.344 22.542,26.125 22.542,26.125C22.542,26.125 17.812,30.009 17.375,31.083C16.938,32.157 16.344,31.656 16,32C15.656,32.344 15.969,32.406 16,33C16.031,33.594 13.126,35.99 12.75,36.542C12.374,37.094 12.563,37.071 12.75,37.645C12.937,38.219 10.49,43.406 10.542,45.125C10.594,46.844 11.073,48.05 11.459,48.462C11.219,52.188 14.5,58.025 14.5,58.025Z" style="fill:rgb(202,202,202);fill-rule:nonzero;"/>
        </g>
        <g id="path172" transform="matrix(1.24302,0,0,1.23608,-11.5695,2.60159)">
            <path d="M14.438,57.156C14.438,57.156 13.749,52.75 15.5,51.187C15.438,50.749 14.282,48.968 15.782,44.656C14.657,43.312 14.907,40.594 14.907,40.594L12.188,40.594C12.188,40.594 12.08,40.9 11.929,41.352C11.602,42.336 11.075,44.012 11.032,44.719C10.97,45.75 11.157,47.75 11.72,48.313C11.874,51.687 14.438,57.156 14.438,57.156Z" style="fill:rgb(202,202,202);fill-rule:nonzero;"/>
        </g>
        <g id="path174" transform="matrix(1.24302,0,0,1.23608,-11.5695,2.60159)">
            <path d="M12.292,41.083C12.292,41.083 12.037,40.793 12.396,39.875C12.755,38.957 13.148,38.002 13.167,37.75C13.186,37.498 12.918,37.334 12.938,37.062C12.958,36.79 16.257,33.233 16.257,33.233L16.249,32.206C16.249,32.206 16.949,32.148 17.317,31.696C17.565,30.986 22.667,26.188 23.166,25.999C23.665,25.81 26.417,25.792 26.937,26.478C27.457,27.164 27.376,29.333 27.312,29.79C27.248,30.247 23.292,33.48 22.208,34.728C21.124,35.976 21.043,37.208 20.666,38.478C20.289,39.748 20.478,41.749 21.604,42.916C21.082,43.436 20.937,47.041 20.937,47.041C20.937,47.041 20.337,46.341 20.062,46.312C19.787,46.283 19.292,46.229 19.02,46.208C18.748,46.187 17.728,44.208 17.728,44.208C17.728,44.208 17.156,39.668 18.582,33.666C19.31,31.895 19.844,31.165 19.781,30.915C19.718,30.665 19.441,30.732 17.227,32.748C15.013,34.764 14.884,41.394 14.884,41.394L12.292,41.165" style="fill:rgb(202,202,202);fill-rule:nonzero;"/>
        </g>
        <g id="path176" transform="matrix(1.24302,0,0,1.23608,-11.5695,2.60159)">
            <path d="M27.531,26.75C25.437,23.375 18.187,27.406 18.187,27.406C18.187,27.406 18.281,22.718 18.687,22.062C19.093,21.406 19.968,21.156 19.968,21.156C19.968,21.156 19.5,20.531 19.938,19.5C20.376,18.469 22.594,16.625 23.344,16.438C24.094,16.251 24.656,16.438 24.656,16.438C24.656,16.438 24.906,15.657 26.906,15C28.906,14.343 34.687,16.281 34.687,16.281C34.687,16.281 28.094,20.75 27.531,26.75Z" style="fill:rgb(202,202,202);fill-rule:nonzero;"/>
        </g>
        <g id="path178" transform="matrix(1.24302,0,0,1.23608,-11.5695,2.60159)">
            <path d="M27.792,29.312C27.792,29.312 28.709,28.957 28.917,29.166C29.125,29.375 28.969,28.738 29.125,28.291C29.281,27.844 33.542,25.887 33.542,25.887C33.542,25.887 31.948,25.114 31.209,25.416C30.47,25.718 27.959,27.655 27.792,27.999C27.625,28.343 27.792,29.312 27.792,29.312Z" style="fill:rgb(202,202,202);fill-rule:nonzero;"/>
        </g>
        <g id="path180" transform="matrix(1.24302,0,0,1.23608,-11.5695,2.60159)">
            <path d="M27.718,27.531C27.718,27.531 30.656,25.125 31.313,24.969C31.97,24.813 32.782,25.035 33.251,25.346C33.72,25.657 34.939,25.004 35.313,25.346C35.687,25.688 35.751,26.313 36.157,26.5C36.563,26.687 38.595,25.992 39.876,25.887C41.157,25.782 45.251,27.25 46.282,28.594C47.313,29.938 51.657,31.532 51.657,31.532C51.657,31.532 47.703,27.282 46.688,26.72C45.673,26.158 39.469,24.158 37.844,23.908C36.219,23.658 31.532,24.002 30.344,24.533C29.156,25.064 27.718,27.531 27.718,27.531Z" style="fill:rgb(202,202,202);fill-rule:nonzero;"/>
        </g>
        <g id="path182" transform="matrix(1.24302,0,0,1.23608,-11.5695,2.60159)">
            <path d="M21.75,42.375C21.75,42.375 21.918,41.748 22.281,41.313C21.957,40.753 21.647,40.144 21.75,39.344C21.853,38.544 25.23,34.103 25.719,33.875C26.208,33.647 26.989,32.832 27.359,32.844C27.729,32.856 27.939,32.311 28.219,32.125C28.499,31.939 29.146,32.332 29.625,32.281C30.104,32.23 29.896,31.019 30.219,30.781C30.542,30.543 32.083,30.998 32.563,30.781C33.043,30.564 33.104,28.853 33.542,27.812C33.98,26.771 35.75,26.843 35.75,26.843C35.75,26.843 35.729,25.748 35.094,25.655C34.375,25.458 29.666,28.164 29.469,28.467C29.272,28.77 29.313,29.561 29.313,29.561C29.313,29.561 27.852,29.498 27.718,29.967C27.584,30.436 21.901,35.115 21.75,36.155C20.125,40.312 21.75,42.375 21.75,42.375Z" style="fill:rgb(202,202,202);fill-rule:nonzero;"/>
        </g>
        <g id="path184" transform="matrix(1.24302,0,0,1.23608,-11.5695,2.60159)">
            <path d="M53.719,25.346C53.344,23.719 54.531,22.438 54.531,22.438C54.531,22.438 54.125,21.876 54.531,21.626C53.875,20.22 50.5,19.157 50.5,19.157C50.5,19.157 50,19.313 49.406,19.376C48.812,19.439 48.062,17.782 48.062,17.782C48.062,17.782 47.5,18.001 46.781,17.782C46.062,17.563 45.625,16.438 45.625,16.438C45.625,16.438 42.094,16.188 41.281,16.75C40.468,17.312 37.843,22.25 40.531,24.031C41.406,24.312 48.031,22.593 49.093,22.937C50.155,23.281 49.593,24.281 50.812,24.718C52.031,25.155 52.718,24.499 52.718,24.499C52.718,24.499 53.188,25.279 53.719,25.346Z" style="fill:rgb(202,202,202);fill-rule:nonzero;"/>
        </g>
        <g id="path186" transform="matrix(1.24302,0,0,1.23608,-11.5695,2.60159)">
            <path d="M27.99,26.333C27.99,26.333 28.626,21.75 35.75,15.583C38.042,13.583 41.459,12.958 43.792,13.041C46.125,13.124 48,13.791 48,13.791C48,13.791 39.167,13.666 36.5,16.833C32.415,18.159 27.99,26.333 27.99,26.333Z" style="fill:rgb(202,202,202);fill-rule:nonzero;"/>
        </g>
        <g id="path188" transform="matrix(1.24302,0,0,1.23608,-11.5695,2.60159)">
            <path d="M36.938,16.875C36.938,16.875 39.684,15.033 41.126,14.864C42.72,14.437 46.751,14.218 48.251,14.031C49.751,13.844 54.439,15.156 56.439,15.687C58.439,16.218 64.72,20.093 66.533,21.625C68.346,23.157 70.877,28.687 70.877,28.687C70.877,28.687 66.439,23.875 65.565,22.749C64.691,21.623 62.805,20.988 62.284,21.134C61.763,21.28 61.346,21.561 60.534,21.624C57.909,21.062 56.159,17.093 55.596,16.843C55.033,16.593 54.127,17.405 53.408,17.374C52.689,17.343 51.812,16 51.812,16C51.812,16 51.718,18.875 49.406,18.969C48.718,18.563 48.218,17.344 48.218,17.344C48.218,17.344 47.523,17.467 46.94,17.5C46.357,17.533 46,16.375 45.656,16.031C44.096,15.991 41.844,15.858 41.218,16.382C40.592,16.906 36.938,16.875 36.938,16.875Z" style="fill:rgb(202,202,202);fill-rule:nonzero;"/>
        </g>
        <g id="path190" transform="matrix(1.24302,0,0,1.23608,-11.5695,2.60159)">
            <path d="M52,16.938C52.094,18.032 50.938,18.876 50.938,18.876C50.938,18.876 53.75,19.814 54.657,21.127C55.407,19.97 59.032,21.351 59.032,21.351C59.032,21.351 57.376,20.657 55.407,17.22C52.844,18.5 52.688,17.438 52,16.938Z" style="fill:rgb(202,202,202);fill-rule:nonzero;"/>
        </g>
        <g id="path192" transform="matrix(1.24302,0,0,1.23608,-11.5695,2.60159)">
            <path d="M60.438,22.062C60.438,22.062 62.032,21.843 62.407,21.593C62.782,21.343 64.448,22.147 64.845,22.581C65.242,23.015 70.471,28.854 70.876,29.186C71.564,32.78 71.376,34.186 71.376,34.186C71.376,34.186 70.628,33.119 69.407,33.498C67.375,27.031 60.438,22.062 60.438,22.062Z" style="fill:rgb(202,202,202);fill-rule:nonzero;"/>
        </g>
        <g id="path194" transform="matrix(1.24302,0,0,1.23608,-11.5695,2.60159)">
            <path d="M70.083,26.333C70.083,26.333 68.711,19.875 65.918,18.666C63.033,16.927 61.583,15.666 61.25,15.291C60.917,14.916 61.792,14.708 61.792,14.708C61.792,14.708 60.333,13.125 56.5,12.125C52.667,11.125 45.375,12.542 45.375,12.542C45.375,12.542 54.416,13.875 58.083,15.917C69.583,20.417 70.083,26.333 70.083,26.333Z" style="fill:rgb(202,202,202);fill-rule:nonzero;"/>
        </g>
        <g id="g198" transform="matrix(1.24302,0,0,1.23608,-11.5695,2.60159)">
            <path id="path196" d="M33.167,43.5C33.167,43.5 32.5,42.344 32.667,41.931C32.834,41.518 33.542,42.109 33.542,42.109C33.542,42.109 32.719,41.344 32.875,40.626C33.031,39.908 35.583,41.084 35.583,41.084C35.583,41.084 34.625,40.251 34.625,39.792C34.625,39.333 36.208,39.792 36.208,39.792C36.208,39.792 34.907,38.125 35.083,37.542C35.259,36.959 38.291,38.584 38.291,38.584C38.291,38.584 37.25,37.344 37.166,36.751C37.082,36.158 39.874,37.834 39.874,37.834C39.874,37.834 39.468,36.407 39.686,36.292C39.904,36.177 41.457,37.292 41.457,37.292C41.457,37.292 40.218,35.219 40.874,34.584C41.53,33.949 44,36.958 44,36.958C44,36.958 43.782,33.406 44.292,32.979C44.709,32.63 45.334,35.177 45.549,36.12C45.531,35.93 45.552,35.7 45.709,35.541C46.022,35.223 47,36.464 47,36.464C47,36.464 46.657,34.438 46.833,34.375C47.009,34.312 48.75,35.531 49.208,37.167C49.666,38.803 49.375,34.563 50,34.625C50.625,34.687 51.055,37.792 51.055,37.792C51.055,37.792 50.969,34.407 51.291,34.375C51.572,34.348 51.935,35.831 52.021,36.206L52.021,33.25C52.021,32.855 51.979,32.041 51.656,31.938C51.333,31.835 46.417,29.854 45.896,28.876C45.624,28.399 42.343,26.393 40.146,26.334C39.521,26.377 36.938,26.958 36.188,27.022C36.021,27.315 34.48,27.437 34.146,27.793C33.812,28.149 33.271,30.853 32.792,31.126C32.313,31.399 30.48,31.126 30.48,31.126C30.48,31.126 30.292,32.417 29.855,32.605C29.418,32.793 28.667,32.52 28.389,32.501C28.382,33.023 27.359,33.251 27.359,33.251C27.359,33.251 26.376,34.063 25.938,34.209C25.5,34.355 22.376,38.604 22.146,39.397C21.916,40.19 22.667,41.105 22.667,41.105C22.667,41.105 27.271,35.75 30.667,34.667C34.125,33.793 35.417,35.042 35.417,35.042C35.417,35.042 32.875,36.373 32.813,36.73C32.751,37.087 32.48,37.668 32.48,37.668L31.48,37.772C31.48,37.772 32.542,38.686 32.522,39.543C32.502,40.4 31.21,43.939 31.21,43.939C31.21,43.939 31.96,44.541 32.356,44.356C32.561,44.26 32.514,44.202 33.035,43.679C32.78,43.855 33.167,43.5 33.167,43.5Z" style="fill:rgb(202,202,202);fill-rule:nonzero;"/>
        </g>
        <g id="g202" transform="matrix(1.24302,0,0,1.23608,-11.5695,2.60159)">
            <path id="path200" d="M53.995,36.406C53.995,36.406 54.219,33.656 54.687,34.531C55.155,35.406 55.343,37.281 55.343,37.281C55.343,37.281 55.593,34.879 55.999,34.955C56.405,35.031 56.75,38 56.75,38C56.75,38 57.387,35.998 57.729,36.062C57.803,36.076 57.832,36.483 57.833,37.091L58.188,35.655C58.188,35.655 54.969,33.499 54.813,31.53C54.782,30.592 55.282,30.436 55.282,30.436C55.282,30.436 54.126,28.715 54.22,28.155C54.314,27.595 54.314,27.594 54.532,27.328C54.75,27.062 53.907,25.874 53.907,25.874C53.907,25.874 52.907,25.655 52.688,25.155C52.313,25.561 50.701,25.272 50.25,24.936C49.799,24.6 49.375,24.498 48.969,23.289C48.108,23.427 41.625,24.467 41.625,24.467C41.625,24.467 46.5,25.603 47.125,26.332C47.75,27.061 51.75,29.811 52.25,31.967C52.468,32.905 52.514,34.417 52.496,35.825C52.655,35.373 52.826,34.923 53,34.529C53.688,32.969 53.995,36.406 53.995,36.406Z" style="fill:rgb(202,202,202);fill-rule:nonzero;"/>
        </g>
        <g id="path204" transform="matrix(1.24302,0,0,1.23608,-11.5695,2.60159)">
            <path d="M29.875,24.166C29.875,24.166 33.245,19.077 36.458,17.499C37.458,17.916 40.25,17.064 40.25,17.064C40.25,17.064 37.708,20.915 39.35,23.822C35.708,22.083 29.875,24.166 29.875,24.166Z" style="fill:rgb(202,202,202);fill-rule:nonzero;"/>
        </g>
        <g id="path206" transform="matrix(1.24302,0,0,1.23608,-11.5695,2.60159)">
            <path d="M64.125,53.625C63.708,52.625 59.021,49.75 59,49.25C58.979,48.75 58.751,46.458 59.917,46.5C61.083,46.542 63.458,45.875 63.458,45.875C63.458,45.875 67.113,48.833 68,49.417C68.887,50.001 68.943,52.188 68.943,52.188C68.943,52.188 66.417,50.292 66.25,53.417C65.167,52.958 64.542,53.167 64.125,53.625Z" style="fill:rgb(202,202,202);fill-rule:nonzero;"/>
        </g>
    </g>
</svg>
